<svg width="26" height="26" viewBox="0 0 26 26" fill="none" xmlns="http://www.w3.org/2000/svg">
<mask id="path-1-outside-1_1073_1914" maskUnits="userSpaceOnUse" x="0" y="0" width="26" height="26" fill="black">
<rect fill="white" width="26" height="26"/>
<path d="M13.2351 13.76C13.1959 13.1703 13.1239 12.0238 13.1164 11.9837C12.8735 10.5923 11.8026 9.79708 9.75356 9.48316C9.72492 9.38575 9.6591 9.30222 9.56906 9.25347L8.59129 8.7071L8.58051 8.43841C9.07973 8.02408 9.45618 7.41147 9.64804 6.69541C9.94968 6.67849 10.2394 6.38018 10.3387 5.96041C10.4315 5.55593 10.3205 5.17263 10.0786 5.01049C10.1065 4.90746 10.1332 4.80518 10.1574 4.70186C10.5567 2.99725 10.0742 1.9399 8.59331 1.27357C7.83449 0.93213 6.75651 0.739521 5.93001 1.76065C5.92106 1.77161 5.92968 1.76922 5.89007 1.76158C4.91484 1.57066 4.29295 1.93929 4.04254 2.85719C3.8946 3.39972 4.01357 4.35522 4.18842 5.01293C3.94452 5.1753 3.83385 5.5579 3.92943 5.96135C4.02848 6.3775 4.31699 6.67549 4.61723 6.69452C4.8156 7.43472 5.20776 8.06008 5.72868 8.47446L5.70918 8.70429L4.69377 9.26697C4.60143 9.31896 4.53534 9.40558 4.50787 9.50552C2.39348 9.8598 1.24063 10.68 1.08459 11.9474C1.08154 11.9755 1.03748 12.9681 1.00106 13.7783C0.976024 14.3105 1.39931 14.7615 1.94067 14.7615H12.2969C12.8303 14.7615 13.2721 14.3131 13.2351 13.76ZM9.50695 9.66602L8.48798 11.4649C8.44349 11.5433 8.33709 11.5652 8.2656 11.5041L7.29693 10.6813C7.46535 10.4394 8.34051 9.18274 8.50898 8.94077L9.45145 9.46741C9.52809 9.50889 9.5429 9.60349 9.50695 9.66602ZM7.1309 8.98905C7.55573 8.98905 7.97057 8.85986 8.34342 8.6156L8.34853 8.74375C7.90359 9.3828 7.58306 9.84311 7.13451 10.4873L5.9504 8.74858L5.95954 8.64049C6.32226 8.86868 6.72304 8.98905 7.1309 8.98905ZM4.27809 2.92141C4.51012 2.0704 5.05363 1.84676 5.84329 2.00121C6.00032 2.032 6.02348 2.03341 6.11981 1.91421C6.70485 1.19149 7.50313 1.05101 8.49328 1.49622C9.86573 2.11371 10.2924 3.0558 9.91987 4.64627C9.8714 4.85332 9.81098 5.06515 9.74395 5.30519C9.72299 5.38113 9.68554 5.38113 9.67017 5.38038C9.62296 5.37977 9.56695 5.34105 9.5572 5.30233C9.50807 5.1071 9.45374 4.93957 9.40574 4.79177C9.30824 4.49121 9.23127 4.25379 9.24281 3.9401C9.25031 3.7406 9.0509 3.59754 8.87071 3.67277C8.17303 3.96129 6.8399 3.63616 6.27702 3.04066C6.1649 2.92221 5.97885 2.92427 5.87099 3.04521C5.66957 3.27068 5.38106 3.4684 5.07927 3.58783C4.94971 3.63907 4.88179 3.7803 4.92135 3.91619C5.00277 4.19636 4.94127 4.45085 4.87012 4.74555C4.83604 4.88655 4.80088 5.03219 4.77623 5.2045C4.7511 5.3809 4.7294 5.47052 4.68112 5.47052C4.6319 5.47005 4.56881 5.39425 4.52863 5.28602C4.50112 5.21219 4.47379 5.12711 4.44735 5.03435L4.44702 5.03322C4.27106 4.41527 4.13676 3.43994 4.27809 2.92141ZM4.82952 6.53908C4.81438 6.47627 4.75326 6.43586 4.6889 6.44777C4.48377 6.484 4.24579 6.23646 4.1669 5.90505C4.10127 5.62774 4.15968 5.39369 4.26487 5.27083C4.27645 5.30557 4.28807 5.33979 4.29979 5.37124C4.38046 5.5879 4.51837 5.71305 4.67817 5.7146H4.6821C4.9499 5.7146 4.99063 5.42857 5.01937 5.22775C5.04084 5.07832 5.07454 4.93825 5.10731 4.80288C5.18334 4.48802 5.2552 4.19055 5.15559 3.84804C5.15165 3.83421 5.1576 3.8193 5.16904 3.8148C5.50977 3.67999 5.8237 3.46441 6.05301 3.20782C6.06665 3.1923 6.08676 3.19507 6.0996 3.20843C6.67284 3.81504 8.10684 4.2521 8.96385 3.89847C8.98049 3.89093 8.99957 3.91075 8.99887 3.93115C8.98565 4.2881 9.07265 4.55646 9.17348 4.86719C9.2226 5.01832 9.27337 5.17469 9.32043 5.36214C9.35713 5.50741 9.50957 5.62268 9.66735 5.6246C9.81206 5.62863 9.93529 5.52902 9.97912 5.37063L10.006 5.27425C10.1074 5.40143 10.1621 5.63894 10.101 5.90515C10.022 6.23899 9.78046 6.48827 9.57773 6.448C9.51299 6.43633 9.45117 6.47599 9.43602 6.53932C9.26001 7.26883 8.8852 7.89035 8.38035 8.28944C8.00507 8.58752 7.57302 8.74507 7.1309 8.74507C6.70902 8.74507 6.29343 8.59957 5.92912 8.32413C5.40243 7.92705 5.01187 7.29316 4.82952 6.53908ZM4.81274 9.48021L5.78596 8.94091L6.96965 10.6806L6.00013 11.5051C5.93052 11.5645 5.82356 11.5458 5.77738 11.4657L4.75626 9.68008C4.71918 9.61708 4.73756 9.5224 4.81274 9.48021ZM1.24485 13.7895C1.24701 13.7412 1.32393 12.0208 1.32698 11.9756C1.46756 10.8344 2.54427 10.0868 4.52343 9.75049C4.53042 9.76807 4.53571 9.78649 4.54518 9.80257L5.5656 11.5871C5.68874 11.8011 5.97309 11.8481 6.15806 11.6912L7.13296 10.8622L8.10726 11.6898C8.29415 11.8498 8.57976 11.798 8.70042 11.5853L9.71906 9.78696C9.72965 9.76849 9.73809 9.74904 9.7454 9.72916C11.6573 10.0278 12.6549 10.7586 12.8755 12.0221C12.8826 12.0812 12.9382 12.9671 12.9916 13.7763C13.0185 14.1788 12.7002 14.5174 12.2969 14.5174H1.94062C1.54274 14.5174 1.2261 14.187 1.24485 13.7895ZM23.0949 20.1597L21.0628 19.4021L19.9662 18.5673C19.9344 18.4074 19.9118 18.2193 19.8974 17.9957C20.0177 17.8778 20.119 17.7616 20.1753 17.6622C20.3256 17.4011 20.4402 16.93 20.5251 16.5262C20.8033 16.4642 20.86 16.3569 20.88 16.1865C20.8904 16.0994 20.9044 15.98 21.0347 15.7694C21.2309 15.4546 21.2988 15.0649 21.2036 14.7997C21.1638 14.6889 21.0983 14.6053 21.0113 14.5523C21.0108 14.4401 21.0044 13.0486 21.0044 13.0322C21.0044 11.9758 20.0775 10.9063 18.3061 10.9063C16.5338 10.9063 15.6066 11.9714 15.6066 13.0236C15.6066 13.2136 15.6016 14.2004 15.5997 14.5638C15.5182 14.6203 15.4566 14.7063 15.4204 14.8186C15.3338 15.0881 15.4016 15.4612 15.5936 15.7698C15.7276 15.9832 15.7411 16.1025 15.751 16.1896C15.7711 16.3667 15.8307 16.4596 16.0853 16.5195C16.2012 17.0879 16.3123 17.4521 16.4332 17.6621C16.493 17.7662 16.602 17.8889 16.7306 18.0129C16.7167 18.2242 16.6946 18.4101 16.6644 18.5666L15.5677 19.4025L13.5345 20.1596C12.4431 20.5662 11.7099 21.6215 11.7099 22.7855V23.9717C11.7099 24.4932 12.1348 24.9175 12.6569 24.9175C22.7953 24.9176 13.8342 24.9182 23.9724 24.9175C24.4947 24.9175 24.9195 24.4932 24.9195 23.9717V22.7855C24.9194 21.6211 24.1861 20.5658 23.0949 20.1597ZM20.9301 19.6078L20.9311 19.6086C20.9602 19.6389 21.0812 19.6861 21.0719 19.825C21.0616 19.9798 20.9121 19.9983 20.7731 20.0953C20.7006 20.1371 20.6909 20.2382 20.7539 20.2929L21.2871 20.7584C21.3601 20.8211 21.3738 20.9293 21.319 21.0102C21.0647 21.3848 22.2401 19.6533 18.8322 24.6735H18.7894C19.3554 22.9249 19.9864 20.7044 19.981 18.8853L20.9301 19.6078ZM18.0991 24.6735C17.948 24.2081 17.8192 23.7944 17.708 23.4153C17.7101 23.3988 18.0014 21.1523 18.1159 20.2727C18.1202 20.2406 18.1114 20.2081 18.0916 20.1825L17.8616 19.8838L18.3159 19.5147L18.7692 19.8825L18.5362 20.1863C18.5173 20.211 18.5107 20.2491 18.5139 20.2809C18.5808 20.8131 18.5129 20.2783 18.9214 23.4209C18.8121 23.7954 18.6841 24.2073 18.5325 24.6735L18.0991 24.6735ZM18.0877 19.3856C17.9137 19.5269 17.1465 20.1502 16.9932 20.2748C16.9217 19.7499 16.8888 19.2701 16.8935 18.8268C17.0124 18.8823 17.8956 19.2956 18.0877 19.3856ZM19.7361 18.8258C19.7407 19.268 19.7079 19.7472 19.6366 20.2721L18.5435 19.3852C18.5564 19.3791 19.5306 18.9216 19.7361 18.8258ZM19.0901 22.8259C18.5449 18.6313 18.8622 21.1143 18.7608 20.2946L18.9589 20.0363L19.5954 20.5528C19.4892 21.2294 19.3217 21.981 19.0901 22.8259ZM17.6721 20.0378L17.8674 20.2914C17.7799 20.9633 17.7248 21.3861 17.539 22.8201C17.3078 21.9794 17.1406 21.2307 17.0345 20.5558L17.6721 20.0378ZM15.8506 13.0236C15.8506 12.0927 16.6941 11.1504 18.3061 11.1504C19.9173 11.1504 20.7603 12.097 20.7603 13.0327C20.7606 13.0814 20.7666 14.4102 20.7667 14.455C20.2401 14.1836 20.1773 13.7058 20.0313 13.4435C19.9061 13.1584 19.5897 13.0193 19.2944 13.1199C18.6199 13.3501 17.9908 13.3499 17.3151 13.1197C17.025 13.021 16.7015 13.163 16.5785 13.4433C16.433 13.705 16.369 14.1833 15.8443 14.4547C15.8466 14.032 15.8506 13.1968 15.8506 13.0236ZM16.6447 17.5404C16.5334 17.347 16.4234 16.9712 16.3084 16.3914C16.2984 16.3406 16.2574 16.3018 16.2063 16.2944C15.9724 16.2604 15.9995 16.215 15.9936 16.1622C15.9817 16.0579 15.9639 15.9005 15.8005 15.6403C15.65 15.3982 15.5892 15.091 15.6528 14.8933C15.7028 14.7376 15.7911 14.7535 15.8474 14.7202C16.5691 14.4204 16.669 13.7663 16.8021 13.5413C16.8746 13.376 17.066 13.2925 17.2363 13.3506C17.9655 13.5993 18.6445 13.5993 19.3733 13.3509C19.5469 13.2916 19.734 13.3734 19.8077 13.5414L19.996 13.9711C20.2126 14.4651 20.7262 14.7533 20.8839 14.7605C20.9227 14.7844 20.9531 14.8248 20.9737 14.8822C21.044 15.0777 20.9839 15.3894 20.8273 15.6405C20.6683 15.8976 20.6498 16.0542 20.6375 16.1579C20.63 16.2221 20.6498 16.2638 20.4042 16.3004C20.3535 16.3081 20.313 16.3464 20.3026 16.3966C20.2264 16.7673 20.1084 17.2892 19.9634 17.5411C19.7897 17.8475 19.0349 18.4084 18.8779 18.4751C18.5282 18.6347 18.0816 18.633 17.7283 18.474C17.5746 18.4079 16.8199 17.8455 16.6447 17.5404ZM17.63 18.6975C18.0457 18.8843 18.5664 18.8853 18.9762 18.6986C19.0816 18.6538 19.3868 18.4438 19.669 18.2037C19.6815 18.3365 19.6977 18.4564 19.7175 18.5653C19.4706 18.6796 18.6128 19.0835 18.3347 19.2134H18.2967C18.0769 19.1113 17.632 18.9023 16.9124 18.5661C16.9312 18.4601 16.9468 18.3448 16.9589 18.2184C17.2353 18.4517 17.5282 18.6537 17.63 18.6975ZM17.8424 24.6735H17.7979C17.4622 24.1788 15.8293 21.7721 15.3123 21.0102C15.2579 20.9298 15.2718 20.8213 15.3451 20.7576L15.8774 20.2928C15.9399 20.2383 15.9308 20.1372 15.858 20.0952C15.7206 19.9994 15.568 19.9794 15.5581 19.8237C15.5541 19.7585 15.5814 19.6986 15.634 19.6589C15.9315 19.4321 16.3716 19.0967 16.6485 18.8856C16.6432 20.718 17.2746 22.9191 17.8424 24.6735ZM11.954 23.9718V22.7856C11.954 21.7229 12.6234 20.7596 13.6196 20.3884L15.3195 19.7553C15.3159 19.783 15.3126 19.8107 15.3144 19.8392C15.332 20.1158 15.5723 20.2073 15.5881 20.2214L15.1848 20.5737C15.0184 20.718 14.9864 20.9646 15.1104 21.1473C15.355 21.5079 14.2245 19.8411 17.5022 24.6736H12.6569C12.2693 24.6735 11.954 24.3588 11.954 23.9718ZM24.6754 23.9718C24.6754 24.3588 24.36 24.6735 23.9723 24.6735H19.128L21.5208 21.1473C21.6455 20.9635 21.6133 20.7168 21.4467 20.5739L21.0431 20.2213C21.0645 20.2022 21.2968 20.1224 21.3155 19.8411C21.3174 19.8119 21.3143 19.7833 21.3106 19.7549L23.0098 20.3884C24.006 20.7592 24.6754 21.7225 24.6754 22.7856L24.6754 23.9718ZM9.93065 22.3694C8.70763 21.6155 7.96481 20.3256 7.92627 18.9007H8.32265C8.73403 18.9005 8.94426 18.412 8.66399 18.1129L6.80887 16.1351C6.72093 16.0416 6.59662 15.9879 6.4679 15.9879C6.33918 15.9879 6.21463 16.0415 6.12642 16.1352L4.27096 18.1132C3.9899 18.4128 4.20187 18.9008 4.61207 18.9008H5.01168C5.07548 21.3071 7.04291 23.2414 9.47245 23.2414C9.77048 23.2414 10.0528 23.2281 10.1392 22.8871C10.191 22.683 10.1092 22.4798 9.93065 22.3694ZM9.90262 22.8271C9.85438 23.0173 9.67045 22.9974 9.47263 22.9974C7.14102 22.9974 5.25379 21.1109 5.25407 18.7788C5.25407 18.7114 5.19937 18.6567 5.13201 18.6567H4.61202C4.4144 18.6567 4.31409 18.4237 4.44899 18.2801L6.30426 16.3023C6.34706 16.2569 6.40509 16.2319 6.46776 16.2319C6.53043 16.2319 6.58837 16.2569 6.63093 16.3022L8.48596 18.2799C8.62021 18.4233 8.52098 18.6566 8.3227 18.6566H7.80271C7.73535 18.6566 7.68079 18.7112 7.68065 18.7785C7.67873 20.3369 8.47199 21.7569 9.80249 22.5771C9.9067 22.6416 9.92254 22.7486 9.90262 22.8271Z"/>
</mask>
<path d="M13.2351 13.76C13.1959 13.1703 13.1239 12.0238 13.1164 11.9837C12.8735 10.5923 11.8026 9.79708 9.75356 9.48316C9.72492 9.38575 9.6591 9.30222 9.56906 9.25347L8.59129 8.7071L8.58051 8.43841C9.07973 8.02408 9.45618 7.41147 9.64804 6.69541C9.94968 6.67849 10.2394 6.38018 10.3387 5.96041C10.4315 5.55593 10.3205 5.17263 10.0786 5.01049C10.1065 4.90746 10.1332 4.80518 10.1574 4.70186C10.5567 2.99725 10.0742 1.9399 8.59331 1.27357C7.83449 0.93213 6.75651 0.739521 5.93001 1.76065C5.92106 1.77161 5.92968 1.76922 5.89007 1.76158C4.91484 1.57066 4.29295 1.93929 4.04254 2.85719C3.8946 3.39972 4.01357 4.35522 4.18842 5.01293C3.94452 5.1753 3.83385 5.5579 3.92943 5.96135C4.02848 6.3775 4.31699 6.67549 4.61723 6.69452C4.8156 7.43472 5.20776 8.06008 5.72868 8.47446L5.70918 8.70429L4.69377 9.26697C4.60143 9.31896 4.53534 9.40558 4.50787 9.50552C2.39348 9.8598 1.24063 10.68 1.08459 11.9474C1.08154 11.9755 1.03748 12.9681 1.00106 13.7783C0.976024 14.3105 1.39931 14.7615 1.94067 14.7615H12.2969C12.8303 14.7615 13.2721 14.3131 13.2351 13.76ZM9.50695 9.66602L8.48798 11.4649C8.44349 11.5433 8.33709 11.5652 8.2656 11.5041L7.29693 10.6813C7.46535 10.4394 8.34051 9.18274 8.50898 8.94077L9.45145 9.46741C9.52809 9.50889 9.5429 9.60349 9.50695 9.66602ZM7.1309 8.98905C7.55573 8.98905 7.97057 8.85986 8.34342 8.6156L8.34853 8.74375C7.90359 9.3828 7.58306 9.84311 7.13451 10.4873L5.9504 8.74858L5.95954 8.64049C6.32226 8.86868 6.72304 8.98905 7.1309 8.98905ZM4.27809 2.92141C4.51012 2.0704 5.05363 1.84676 5.84329 2.00121C6.00032 2.032 6.02348 2.03341 6.11981 1.91421C6.70485 1.19149 7.50313 1.05101 8.49328 1.49622C9.86573 2.11371 10.2924 3.0558 9.91987 4.64627C9.8714 4.85332 9.81098 5.06515 9.74395 5.30519C9.72299 5.38113 9.68554 5.38113 9.67017 5.38038C9.62296 5.37977 9.56695 5.34105 9.5572 5.30233C9.50807 5.1071 9.45374 4.93957 9.40574 4.79177C9.30824 4.49121 9.23127 4.25379 9.24281 3.9401C9.25031 3.7406 9.0509 3.59754 8.87071 3.67277C8.17303 3.96129 6.8399 3.63616 6.27702 3.04066C6.1649 2.92221 5.97885 2.92427 5.87099 3.04521C5.66957 3.27068 5.38106 3.4684 5.07927 3.58783C4.94971 3.63907 4.88179 3.7803 4.92135 3.91619C5.00277 4.19636 4.94127 4.45085 4.87012 4.74555C4.83604 4.88655 4.80088 5.03219 4.77623 5.2045C4.7511 5.3809 4.7294 5.47052 4.68112 5.47052C4.6319 5.47005 4.56881 5.39425 4.52863 5.28602C4.50112 5.21219 4.47379 5.12711 4.44735 5.03435L4.44702 5.03322C4.27106 4.41527 4.13676 3.43994 4.27809 2.92141ZM4.82952 6.53908C4.81438 6.47627 4.75326 6.43586 4.6889 6.44777C4.48377 6.484 4.24579 6.23646 4.1669 5.90505C4.10127 5.62774 4.15968 5.39369 4.26487 5.27083C4.27645 5.30557 4.28807 5.33979 4.29979 5.37124C4.38046 5.5879 4.51837 5.71305 4.67817 5.7146H4.6821C4.9499 5.7146 4.99063 5.42857 5.01937 5.22775C5.04084 5.07832 5.07454 4.93825 5.10731 4.80288C5.18334 4.48802 5.2552 4.19055 5.15559 3.84804C5.15165 3.83421 5.1576 3.8193 5.16904 3.8148C5.50977 3.67999 5.8237 3.46441 6.05301 3.20782C6.06665 3.1923 6.08676 3.19507 6.0996 3.20843C6.67284 3.81504 8.10684 4.2521 8.96385 3.89847C8.98049 3.89093 8.99957 3.91075 8.99887 3.93115C8.98565 4.2881 9.07265 4.55646 9.17348 4.86719C9.2226 5.01832 9.27337 5.17469 9.32043 5.36214C9.35713 5.50741 9.50957 5.62268 9.66735 5.6246C9.81206 5.62863 9.93529 5.52902 9.97912 5.37063L10.006 5.27425C10.1074 5.40143 10.1621 5.63894 10.101 5.90515C10.022 6.23899 9.78046 6.48827 9.57773 6.448C9.51299 6.43633 9.45117 6.47599 9.43602 6.53932C9.26001 7.26883 8.8852 7.89035 8.38035 8.28944C8.00507 8.58752 7.57302 8.74507 7.1309 8.74507C6.70902 8.74507 6.29343 8.59957 5.92912 8.32413C5.40243 7.92705 5.01187 7.29316 4.82952 6.53908ZM4.81274 9.48021L5.78596 8.94091L6.96965 10.6806L6.00013 11.5051C5.93052 11.5645 5.82356 11.5458 5.77738 11.4657L4.75626 9.68008C4.71918 9.61708 4.73756 9.5224 4.81274 9.48021ZM1.24485 13.7895C1.24701 13.7412 1.32393 12.0208 1.32698 11.9756C1.46756 10.8344 2.54427 10.0868 4.52343 9.75049C4.53042 9.76807 4.53571 9.78649 4.54518 9.80257L5.5656 11.5871C5.68874 11.8011 5.97309 11.8481 6.15806 11.6912L7.13296 10.8622L8.10726 11.6898C8.29415 11.8498 8.57976 11.798 8.70042 11.5853L9.71906 9.78696C9.72965 9.76849 9.73809 9.74904 9.7454 9.72916C11.6573 10.0278 12.6549 10.7586 12.8755 12.0221C12.8826 12.0812 12.9382 12.9671 12.9916 13.7763C13.0185 14.1788 12.7002 14.5174 12.2969 14.5174H1.94062C1.54274 14.5174 1.2261 14.187 1.24485 13.7895ZM23.0949 20.1597L21.0628 19.4021L19.9662 18.5673C19.9344 18.4074 19.9118 18.2193 19.8974 17.9957C20.0177 17.8778 20.119 17.7616 20.1753 17.6622C20.3256 17.4011 20.4402 16.93 20.5251 16.5262C20.8033 16.4642 20.86 16.3569 20.88 16.1865C20.8904 16.0994 20.9044 15.98 21.0347 15.7694C21.2309 15.4546 21.2988 15.0649 21.2036 14.7997C21.1638 14.6889 21.0983 14.6053 21.0113 14.5523C21.0108 14.4401 21.0044 13.0486 21.0044 13.0322C21.0044 11.9758 20.0775 10.9063 18.3061 10.9063C16.5338 10.9063 15.6066 11.9714 15.6066 13.0236C15.6066 13.2136 15.6016 14.2004 15.5997 14.5638C15.5182 14.6203 15.4566 14.7063 15.4204 14.8186C15.3338 15.0881 15.4016 15.4612 15.5936 15.7698C15.7276 15.9832 15.7411 16.1025 15.751 16.1896C15.7711 16.3667 15.8307 16.4596 16.0853 16.5195C16.2012 17.0879 16.3123 17.4521 16.4332 17.6621C16.493 17.7662 16.602 17.8889 16.7306 18.0129C16.7167 18.2242 16.6946 18.4101 16.6644 18.5666L15.5677 19.4025L13.5345 20.1596C12.4431 20.5662 11.7099 21.6215 11.7099 22.7855V23.9717C11.7099 24.4932 12.1348 24.9175 12.6569 24.9175C22.7953 24.9176 13.8342 24.9182 23.9724 24.9175C24.4947 24.9175 24.9195 24.4932 24.9195 23.9717V22.7855C24.9194 21.6211 24.1861 20.5658 23.0949 20.1597ZM20.9301 19.6078L20.9311 19.6086C20.9602 19.6389 21.0812 19.6861 21.0719 19.825C21.0616 19.9798 20.9121 19.9983 20.7731 20.0953C20.7006 20.1371 20.6909 20.2382 20.7539 20.2929L21.2871 20.7584C21.3601 20.8211 21.3738 20.9293 21.319 21.0102C21.0647 21.3848 22.2401 19.6533 18.8322 24.6735H18.7894C19.3554 22.9249 19.9864 20.7044 19.981 18.8853L20.9301 19.6078ZM18.0991 24.6735C17.948 24.2081 17.8192 23.7944 17.708 23.4153C17.7101 23.3988 18.0014 21.1523 18.1159 20.2727C18.1202 20.2406 18.1114 20.2081 18.0916 20.1825L17.8616 19.8838L18.3159 19.5147L18.7692 19.8825L18.5362 20.1863C18.5173 20.211 18.5107 20.2491 18.5139 20.2809C18.5808 20.8131 18.5129 20.2783 18.9214 23.4209C18.8121 23.7954 18.6841 24.2073 18.5325 24.6735L18.0991 24.6735ZM18.0877 19.3856C17.9137 19.5269 17.1465 20.1502 16.9932 20.2748C16.9217 19.7499 16.8888 19.2701 16.8935 18.8268C17.0124 18.8823 17.8956 19.2956 18.0877 19.3856ZM19.7361 18.8258C19.7407 19.268 19.7079 19.7472 19.6366 20.2721L18.5435 19.3852C18.5564 19.3791 19.5306 18.9216 19.7361 18.8258ZM19.0901 22.8259C18.5449 18.6313 18.8622 21.1143 18.7608 20.2946L18.9589 20.0363L19.5954 20.5528C19.4892 21.2294 19.3217 21.981 19.0901 22.8259ZM17.6721 20.0378L17.8674 20.2914C17.7799 20.9633 17.7248 21.3861 17.539 22.8201C17.3078 21.9794 17.1406 21.2307 17.0345 20.5558L17.6721 20.0378ZM15.8506 13.0236C15.8506 12.0927 16.6941 11.1504 18.3061 11.1504C19.9173 11.1504 20.7603 12.097 20.7603 13.0327C20.7606 13.0814 20.7666 14.4102 20.7667 14.455C20.2401 14.1836 20.1773 13.7058 20.0313 13.4435C19.9061 13.1584 19.5897 13.0193 19.2944 13.1199C18.6199 13.3501 17.9908 13.3499 17.3151 13.1197C17.025 13.021 16.7015 13.163 16.5785 13.4433C16.433 13.705 16.369 14.1833 15.8443 14.4547C15.8466 14.032 15.8506 13.1968 15.8506 13.0236ZM16.6447 17.5404C16.5334 17.347 16.4234 16.9712 16.3084 16.3914C16.2984 16.3406 16.2574 16.3018 16.2063 16.2944C15.9724 16.2604 15.9995 16.215 15.9936 16.1622C15.9817 16.0579 15.9639 15.9005 15.8005 15.6403C15.65 15.3982 15.5892 15.091 15.6528 14.8933C15.7028 14.7376 15.7911 14.7535 15.8474 14.7202C16.5691 14.4204 16.669 13.7663 16.8021 13.5413C16.8746 13.376 17.066 13.2925 17.2363 13.3506C17.9655 13.5993 18.6445 13.5993 19.3733 13.3509C19.5469 13.2916 19.734 13.3734 19.8077 13.5414L19.996 13.9711C20.2126 14.4651 20.7262 14.7533 20.8839 14.7605C20.9227 14.7844 20.9531 14.8248 20.9737 14.8822C21.044 15.0777 20.9839 15.3894 20.8273 15.6405C20.6683 15.8976 20.6498 16.0542 20.6375 16.1579C20.63 16.2221 20.6498 16.2638 20.4042 16.3004C20.3535 16.3081 20.313 16.3464 20.3026 16.3966C20.2264 16.7673 20.1084 17.2892 19.9634 17.5411C19.7897 17.8475 19.0349 18.4084 18.8779 18.4751C18.5282 18.6347 18.0816 18.633 17.7283 18.474C17.5746 18.4079 16.8199 17.8455 16.6447 17.5404ZM17.63 18.6975C18.0457 18.8843 18.5664 18.8853 18.9762 18.6986C19.0816 18.6538 19.3868 18.4438 19.669 18.2037C19.6815 18.3365 19.6977 18.4564 19.7175 18.5653C19.4706 18.6796 18.6128 19.0835 18.3347 19.2134H18.2967C18.0769 19.1113 17.632 18.9023 16.9124 18.5661C16.9312 18.4601 16.9468 18.3448 16.9589 18.2184C17.2353 18.4517 17.5282 18.6537 17.63 18.6975ZM17.8424 24.6735H17.7979C17.4622 24.1788 15.8293 21.7721 15.3123 21.0102C15.2579 20.9298 15.2718 20.8213 15.3451 20.7576L15.8774 20.2928C15.9399 20.2383 15.9308 20.1372 15.858 20.0952C15.7206 19.9994 15.568 19.9794 15.5581 19.8237C15.5541 19.7585 15.5814 19.6986 15.634 19.6589C15.9315 19.4321 16.3716 19.0967 16.6485 18.8856C16.6432 20.718 17.2746 22.9191 17.8424 24.6735ZM11.954 23.9718V22.7856C11.954 21.7229 12.6234 20.7596 13.6196 20.3884L15.3195 19.7553C15.3159 19.783 15.3126 19.8107 15.3144 19.8392C15.332 20.1158 15.5723 20.2073 15.5881 20.2214L15.1848 20.5737C15.0184 20.718 14.9864 20.9646 15.1104 21.1473C15.355 21.5079 14.2245 19.8411 17.5022 24.6736H12.6569C12.2693 24.6735 11.954 24.3588 11.954 23.9718ZM24.6754 23.9718C24.6754 24.3588 24.36 24.6735 23.9723 24.6735H19.128L21.5208 21.1473C21.6455 20.9635 21.6133 20.7168 21.4467 20.5739L21.0431 20.2213C21.0645 20.2022 21.2968 20.1224 21.3155 19.8411C21.3174 19.8119 21.3143 19.7833 21.3106 19.7549L23.0098 20.3884C24.006 20.7592 24.6754 21.7225 24.6754 22.7856L24.6754 23.9718ZM9.93065 22.3694C8.70763 21.6155 7.96481 20.3256 7.92627 18.9007H8.32265C8.73403 18.9005 8.94426 18.412 8.66399 18.1129L6.80887 16.1351C6.72093 16.0416 6.59662 15.9879 6.4679 15.9879C6.33918 15.9879 6.21463 16.0415 6.12642 16.1352L4.27096 18.1132C3.9899 18.4128 4.20187 18.9008 4.61207 18.9008H5.01168C5.07548 21.3071 7.04291 23.2414 9.47245 23.2414C9.77048 23.2414 10.0528 23.2281 10.1392 22.8871C10.191 22.683 10.1092 22.4798 9.93065 22.3694ZM9.90262 22.8271C9.85438 23.0173 9.67045 22.9974 9.47263 22.9974C7.14102 22.9974 5.25379 21.1109 5.25407 18.7788C5.25407 18.7114 5.19937 18.6567 5.13201 18.6567H4.61202C4.4144 18.6567 4.31409 18.4237 4.44899 18.2801L6.30426 16.3023C6.34706 16.2569 6.40509 16.2319 6.46776 16.2319C6.53043 16.2319 6.58837 16.2569 6.63093 16.3022L8.48596 18.2799C8.62021 18.4233 8.52098 18.6566 8.3227 18.6566H7.80271C7.73535 18.6566 7.68079 18.7112 7.68065 18.7785C7.67873 20.3369 8.47199 21.7569 9.80249 22.5771C9.9067 22.6416 9.92254 22.7486 9.90262 22.8271Z" fill="black" fill-opacity="0.56"/>
<path d="M13.2351 13.76C13.1959 13.1703 13.1239 12.0238 13.1164 11.9837C12.8735 10.5923 11.8026 9.79708 9.75356 9.48316C9.72492 9.38575 9.6591 9.30222 9.56906 9.25347L8.59129 8.7071L8.58051 8.43841C9.07973 8.02408 9.45618 7.41147 9.64804 6.69541C9.94968 6.67849 10.2394 6.38018 10.3387 5.96041C10.4315 5.55593 10.3205 5.17263 10.0786 5.01049C10.1065 4.90746 10.1332 4.80518 10.1574 4.70186C10.5567 2.99725 10.0742 1.9399 8.59331 1.27357C7.83449 0.93213 6.75651 0.739521 5.93001 1.76065C5.92106 1.77161 5.92968 1.76922 5.89007 1.76158C4.91484 1.57066 4.29295 1.93929 4.04254 2.85719C3.8946 3.39972 4.01357 4.35522 4.18842 5.01293C3.94452 5.1753 3.83385 5.5579 3.92943 5.96135C4.02848 6.3775 4.31699 6.67549 4.61723 6.69452C4.8156 7.43472 5.20776 8.06008 5.72868 8.47446L5.70918 8.70429L4.69377 9.26697C4.60143 9.31896 4.53534 9.40558 4.50787 9.50552C2.39348 9.8598 1.24063 10.68 1.08459 11.9474C1.08154 11.9755 1.03748 12.9681 1.00106 13.7783C0.976024 14.3105 1.39931 14.7615 1.94067 14.7615H12.2969C12.8303 14.7615 13.2721 14.3131 13.2351 13.76ZM9.50695 9.66602L8.48798 11.4649C8.44349 11.5433 8.33709 11.5652 8.2656 11.5041L7.29693 10.6813C7.46535 10.4394 8.34051 9.18274 8.50898 8.94077L9.45145 9.46741C9.52809 9.50889 9.5429 9.60349 9.50695 9.66602ZM7.1309 8.98905C7.55573 8.98905 7.97057 8.85986 8.34342 8.6156L8.34853 8.74375C7.90359 9.3828 7.58306 9.84311 7.13451 10.4873L5.9504 8.74858L5.95954 8.64049C6.32226 8.86868 6.72304 8.98905 7.1309 8.98905ZM4.27809 2.92141C4.51012 2.0704 5.05363 1.84676 5.84329 2.00121C6.00032 2.032 6.02348 2.03341 6.11981 1.91421C6.70485 1.19149 7.50313 1.05101 8.49328 1.49622C9.86573 2.11371 10.2924 3.0558 9.91987 4.64627C9.8714 4.85332 9.81098 5.06515 9.74395 5.30519C9.72299 5.38113 9.68554 5.38113 9.67017 5.38038C9.62296 5.37977 9.56695 5.34105 9.5572 5.30233C9.50807 5.1071 9.45374 4.93957 9.40574 4.79177C9.30824 4.49121 9.23127 4.25379 9.24281 3.9401C9.25031 3.7406 9.0509 3.59754 8.87071 3.67277C8.17303 3.96129 6.8399 3.63616 6.27702 3.04066C6.1649 2.92221 5.97885 2.92427 5.87099 3.04521C5.66957 3.27068 5.38106 3.4684 5.07927 3.58783C4.94971 3.63907 4.88179 3.7803 4.92135 3.91619C5.00277 4.19636 4.94127 4.45085 4.87012 4.74555C4.83604 4.88655 4.80088 5.03219 4.77623 5.2045C4.7511 5.3809 4.7294 5.47052 4.68112 5.47052C4.6319 5.47005 4.56881 5.39425 4.52863 5.28602C4.50112 5.21219 4.47379 5.12711 4.44735 5.03435L4.44702 5.03322C4.27106 4.41527 4.13676 3.43994 4.27809 2.92141ZM4.82952 6.53908C4.81438 6.47627 4.75326 6.43586 4.6889 6.44777C4.48377 6.484 4.24579 6.23646 4.1669 5.90505C4.10127 5.62774 4.15968 5.39369 4.26487 5.27083C4.27645 5.30557 4.28807 5.33979 4.29979 5.37124C4.38046 5.5879 4.51837 5.71305 4.67817 5.7146H4.6821C4.9499 5.7146 4.99063 5.42857 5.01937 5.22775C5.04084 5.07832 5.07454 4.93825 5.10731 4.80288C5.18334 4.48802 5.2552 4.19055 5.15559 3.84804C5.15165 3.83421 5.1576 3.8193 5.16904 3.8148C5.50977 3.67999 5.8237 3.46441 6.05301 3.20782C6.06665 3.1923 6.08676 3.19507 6.0996 3.20843C6.67284 3.81504 8.10684 4.2521 8.96385 3.89847C8.98049 3.89093 8.99957 3.91075 8.99887 3.93115C8.98565 4.2881 9.07265 4.55646 9.17348 4.86719C9.2226 5.01832 9.27337 5.17469 9.32043 5.36214C9.35713 5.50741 9.50957 5.62268 9.66735 5.6246C9.81206 5.62863 9.93529 5.52902 9.97912 5.37063L10.006 5.27425C10.1074 5.40143 10.1621 5.63894 10.101 5.90515C10.022 6.23899 9.78046 6.48827 9.57773 6.448C9.51299 6.43633 9.45117 6.47599 9.43602 6.53932C9.26001 7.26883 8.8852 7.89035 8.38035 8.28944C8.00507 8.58752 7.57302 8.74507 7.1309 8.74507C6.70902 8.74507 6.29343 8.59957 5.92912 8.32413C5.40243 7.92705 5.01187 7.29316 4.82952 6.53908ZM4.81274 9.48021L5.78596 8.94091L6.96965 10.6806L6.00013 11.5051C5.93052 11.5645 5.82356 11.5458 5.77738 11.4657L4.75626 9.68008C4.71918 9.61708 4.73756 9.5224 4.81274 9.48021ZM1.24485 13.7895C1.24701 13.7412 1.32393 12.0208 1.32698 11.9756C1.46756 10.8344 2.54427 10.0868 4.52343 9.75049C4.53042 9.76807 4.53571 9.78649 4.54518 9.80257L5.5656 11.5871C5.68874 11.8011 5.97309 11.8481 6.15806 11.6912L7.13296 10.8622L8.10726 11.6898C8.29415 11.8498 8.57976 11.798 8.70042 11.5853L9.71906 9.78696C9.72965 9.76849 9.73809 9.74904 9.7454 9.72916C11.6573 10.0278 12.6549 10.7586 12.8755 12.0221C12.8826 12.0812 12.9382 12.9671 12.9916 13.7763C13.0185 14.1788 12.7002 14.5174 12.2969 14.5174H1.94062C1.54274 14.5174 1.2261 14.187 1.24485 13.7895ZM23.0949 20.1597L21.0628 19.4021L19.9662 18.5673C19.9344 18.4074 19.9118 18.2193 19.8974 17.9957C20.0177 17.8778 20.119 17.7616 20.1753 17.6622C20.3256 17.4011 20.4402 16.93 20.5251 16.5262C20.8033 16.4642 20.86 16.3569 20.88 16.1865C20.8904 16.0994 20.9044 15.98 21.0347 15.7694C21.2309 15.4546 21.2988 15.0649 21.2036 14.7997C21.1638 14.6889 21.0983 14.6053 21.0113 14.5523C21.0108 14.4401 21.0044 13.0486 21.0044 13.0322C21.0044 11.9758 20.0775 10.9063 18.3061 10.9063C16.5338 10.9063 15.6066 11.9714 15.6066 13.0236C15.6066 13.2136 15.6016 14.2004 15.5997 14.5638C15.5182 14.6203 15.4566 14.7063 15.4204 14.8186C15.3338 15.0881 15.4016 15.4612 15.5936 15.7698C15.7276 15.9832 15.7411 16.1025 15.751 16.1896C15.7711 16.3667 15.8307 16.4596 16.0853 16.5195C16.2012 17.0879 16.3123 17.4521 16.4332 17.6621C16.493 17.7662 16.602 17.8889 16.7306 18.0129C16.7167 18.2242 16.6946 18.4101 16.6644 18.5666L15.5677 19.4025L13.5345 20.1596C12.4431 20.5662 11.7099 21.6215 11.7099 22.7855V23.9717C11.7099 24.4932 12.1348 24.9175 12.6569 24.9175C22.7953 24.9176 13.8342 24.9182 23.9724 24.9175C24.4947 24.9175 24.9195 24.4932 24.9195 23.9717V22.7855C24.9194 21.6211 24.1861 20.5658 23.0949 20.1597ZM20.9301 19.6078L20.9311 19.6086C20.9602 19.6389 21.0812 19.6861 21.0719 19.825C21.0616 19.9798 20.9121 19.9983 20.7731 20.0953C20.7006 20.1371 20.6909 20.2382 20.7539 20.2929L21.2871 20.7584C21.3601 20.8211 21.3738 20.9293 21.319 21.0102C21.0647 21.3848 22.2401 19.6533 18.8322 24.6735H18.7894C19.3554 22.9249 19.9864 20.7044 19.981 18.8853L20.9301 19.6078ZM18.0991 24.6735C17.948 24.2081 17.8192 23.7944 17.708 23.4153C17.7101 23.3988 18.0014 21.1523 18.1159 20.2727C18.1202 20.2406 18.1114 20.2081 18.0916 20.1825L17.8616 19.8838L18.3159 19.5147L18.7692 19.8825L18.5362 20.1863C18.5173 20.211 18.5107 20.2491 18.5139 20.2809C18.5808 20.8131 18.5129 20.2783 18.9214 23.4209C18.8121 23.7954 18.6841 24.2073 18.5325 24.6735L18.0991 24.6735ZM18.0877 19.3856C17.9137 19.5269 17.1465 20.1502 16.9932 20.2748C16.9217 19.7499 16.8888 19.2701 16.8935 18.8268C17.0124 18.8823 17.8956 19.2956 18.0877 19.3856ZM19.7361 18.8258C19.7407 19.268 19.7079 19.7472 19.6366 20.2721L18.5435 19.3852C18.5564 19.3791 19.5306 18.9216 19.7361 18.8258ZM19.0901 22.8259C18.5449 18.6313 18.8622 21.1143 18.7608 20.2946L18.9589 20.0363L19.5954 20.5528C19.4892 21.2294 19.3217 21.981 19.0901 22.8259ZM17.6721 20.0378L17.8674 20.2914C17.7799 20.9633 17.7248 21.3861 17.539 22.8201C17.3078 21.9794 17.1406 21.2307 17.0345 20.5558L17.6721 20.0378ZM15.8506 13.0236C15.8506 12.0927 16.6941 11.1504 18.3061 11.1504C19.9173 11.1504 20.7603 12.097 20.7603 13.0327C20.7606 13.0814 20.7666 14.4102 20.7667 14.455C20.2401 14.1836 20.1773 13.7058 20.0313 13.4435C19.9061 13.1584 19.5897 13.0193 19.2944 13.1199C18.6199 13.3501 17.9908 13.3499 17.3151 13.1197C17.025 13.021 16.7015 13.163 16.5785 13.4433C16.433 13.705 16.369 14.1833 15.8443 14.4547C15.8466 14.032 15.8506 13.1968 15.8506 13.0236ZM16.6447 17.5404C16.5334 17.347 16.4234 16.9712 16.3084 16.3914C16.2984 16.3406 16.2574 16.3018 16.2063 16.2944C15.9724 16.2604 15.9995 16.215 15.9936 16.1622C15.9817 16.0579 15.9639 15.9005 15.8005 15.6403C15.65 15.3982 15.5892 15.091 15.6528 14.8933C15.7028 14.7376 15.7911 14.7535 15.8474 14.7202C16.5691 14.4204 16.669 13.7663 16.8021 13.5413C16.8746 13.376 17.066 13.2925 17.2363 13.3506C17.9655 13.5993 18.6445 13.5993 19.3733 13.3509C19.5469 13.2916 19.734 13.3734 19.8077 13.5414L19.996 13.9711C20.2126 14.4651 20.7262 14.7533 20.8839 14.7605C20.9227 14.7844 20.9531 14.8248 20.9737 14.8822C21.044 15.0777 20.9839 15.3894 20.8273 15.6405C20.6683 15.8976 20.6498 16.0542 20.6375 16.1579C20.63 16.2221 20.6498 16.2638 20.4042 16.3004C20.3535 16.3081 20.313 16.3464 20.3026 16.3966C20.2264 16.7673 20.1084 17.2892 19.9634 17.5411C19.7897 17.8475 19.0349 18.4084 18.8779 18.4751C18.5282 18.6347 18.0816 18.633 17.7283 18.474C17.5746 18.4079 16.8199 17.8455 16.6447 17.5404ZM17.63 18.6975C18.0457 18.8843 18.5664 18.8853 18.9762 18.6986C19.0816 18.6538 19.3868 18.4438 19.669 18.2037C19.6815 18.3365 19.6977 18.4564 19.7175 18.5653C19.4706 18.6796 18.6128 19.0835 18.3347 19.2134H18.2967C18.0769 19.1113 17.632 18.9023 16.9124 18.5661C16.9312 18.4601 16.9468 18.3448 16.9589 18.2184C17.2353 18.4517 17.5282 18.6537 17.63 18.6975ZM17.8424 24.6735H17.7979C17.4622 24.1788 15.8293 21.7721 15.3123 21.0102C15.2579 20.9298 15.2718 20.8213 15.3451 20.7576L15.8774 20.2928C15.9399 20.2383 15.9308 20.1372 15.858 20.0952C15.7206 19.9994 15.568 19.9794 15.5581 19.8237C15.5541 19.7585 15.5814 19.6986 15.634 19.6589C15.9315 19.4321 16.3716 19.0967 16.6485 18.8856C16.6432 20.718 17.2746 22.9191 17.8424 24.6735ZM11.954 23.9718V22.7856C11.954 21.7229 12.6234 20.7596 13.6196 20.3884L15.3195 19.7553C15.3159 19.783 15.3126 19.8107 15.3144 19.8392C15.332 20.1158 15.5723 20.2073 15.5881 20.2214L15.1848 20.5737C15.0184 20.718 14.9864 20.9646 15.1104 21.1473C15.355 21.5079 14.2245 19.8411 17.5022 24.6736H12.6569C12.2693 24.6735 11.954 24.3588 11.954 23.9718ZM24.6754 23.9718C24.6754 24.3588 24.36 24.6735 23.9723 24.6735H19.128L21.5208 21.1473C21.6455 20.9635 21.6133 20.7168 21.4467 20.5739L21.0431 20.2213C21.0645 20.2022 21.2968 20.1224 21.3155 19.8411C21.3174 19.8119 21.3143 19.7833 21.3106 19.7549L23.0098 20.3884C24.006 20.7592 24.6754 21.7225 24.6754 22.7856L24.6754 23.9718ZM9.93065 22.3694C8.70763 21.6155 7.96481 20.3256 7.92627 18.9007H8.32265C8.73403 18.9005 8.94426 18.412 8.66399 18.1129L6.80887 16.1351C6.72093 16.0416 6.59662 15.9879 6.4679 15.9879C6.33918 15.9879 6.21463 16.0415 6.12642 16.1352L4.27096 18.1132C3.9899 18.4128 4.20187 18.9008 4.61207 18.9008H5.01168C5.07548 21.3071 7.04291 23.2414 9.47245 23.2414C9.77048 23.2414 10.0528 23.2281 10.1392 22.8871C10.191 22.683 10.1092 22.4798 9.93065 22.3694ZM9.90262 22.8271C9.85438 23.0173 9.67045 22.9974 9.47263 22.9974C7.14102 22.9974 5.25379 21.1109 5.25407 18.7788C5.25407 18.7114 5.19937 18.6567 5.13201 18.6567H4.61202C4.4144 18.6567 4.31409 18.4237 4.44899 18.2801L6.30426 16.3023C6.34706 16.2569 6.40509 16.2319 6.46776 16.2319C6.53043 16.2319 6.58837 16.2569 6.63093 16.3022L8.48596 18.2799C8.62021 18.4233 8.52098 18.6566 8.3227 18.6566H7.80271C7.73535 18.6566 7.68079 18.7112 7.68065 18.7785C7.67873 20.3369 8.47199 21.7569 9.80249 22.5771C9.9067 22.6416 9.92254 22.7486 9.90262 22.8271Z" stroke="black" stroke-opacity="0.56" stroke-width="0.6" mask="url(#path-1-outside-1_1073_1914)"/>
</svg>
